<svg xmlns="http://www.w3.org/2000/svg" width="41" height="41" viewBox="0 0 41 41" aria-hidden="true"><defs><linearGradient x1="50%" y1="93.571%" x2="50%" y2="-.778%" id="a"><stop stop-color="#0069FF" stop-opacity=".25" offset="0%"></stop><stop stop-color="#0069FF" stop-opacity="0" offset="100%"></stop></linearGradient></defs><g fill="none" fill-rule="evenodd"><path fill="url(#a)" fill-rule="nonzero" d="M2.8.6h31.4v35.6H2.8z" transform="translate(2 1)"></path><g stroke-width="2"><path d="M5.7 5.7l29.6 29.6M5.7 35.3L35.3 5.7" stroke="#0069FF" opacity=".3"></path><path d="M2.1 36.2c0-2.7 3.6-5.3 3.6-5.3s3.6 2.7 3.6 5.3c0 2-1.6 3.6-3.6 3.6s-3.6-1.6-3.6-3.6zM31.8 36.2c0-2.7 3.6-5.3 3.6-5.3s3.6 2.7 3.6 5.3c0 2-1.6 3.6-3.6 3.6s-3.6-1.6-3.6-3.6zM2.1 6.5c0-2.7 3.6-5.3 3.6-5.3s3.6 2.7 3.6 5.3c0 2-1.6 3.6-3.6 3.6S2.1 8.5 2.1 6.5zM31.8 6.5c0-2.7 3.6-5.3 3.6-5.3S39 3.9 39 6.5c0 2-1.6 3.6-3.6 3.6s-3.6-1.6-3.6-3.6z" stroke="#120078" fill="#FFFFFF" fill-rule="nonzero"></path><path d="M14.5 21.9c0-4.5 6-8.9 6-8.9s6 4.5 6 8.9c0 3.3-2.7 6-6 6s-6-2.7-6-6z" stroke="#0069FF" fill="#FFFFFF" fill-rule="nonzero"></path></g></g></svg>
