<svg xmlns="http://www.w3.org/2000/svg" width="24" height="24" viewBox="0 0 24 24" class="www-Icon www-Icon--large"><title>Glassdoor</title><path fill-rule="evenodd" d="M16.7143 20.5715H3C3 22.465 4.535 24 6.4286 24h10.2857c1.8935 0 3.4286-1.535 3.4286-3.4285V6.4923a.125.125 0 0 0-.125-.1249h-3.1787a.125.125 0 0 0-.125.1249v14.0792zm0-20.5715c1.8935 0 3.4286 1.535 3.4286 3.4286H6.4286v14.0792a.125.125 0 0 1-.1249.125H3.125A.125.125 0 0 1 3 17.5077V3.4286C3 1.5351 4.535 0 6.4286 0h10.2857z"></path></svg>
