<svg xmlns="http://www.w3.org/2000/svg" width="41" height="41" viewBox="0 0 41 41" aria-hidden="true"><defs><linearGradient x1="49.963%" y1="1.851%" x2="49.963%" y2="99.243%" id="a"><stop stop-color="#0069FF" stop-opacity=".3" offset="0%"></stop><stop stop-color="#0069FF" stop-opacity="0" offset="100%"></stop></linearGradient></defs><g transform="translate(4.3 1)" fill="none" fill-rule="evenodd"><circle fill="url(#a)" fill-rule="nonzero" cx="16.185" cy="22.815" r="16.185"></circle><ellipse fill="#FFFFFF" fill-rule="nonzero" cx="16.185" cy="22.815" rx="16.185" ry="6.143"></ellipse><path d="M0 22.815c0-3.413 7.215-6.143 16.185-6.143 8.97 0 16.185 2.73 16.185 6.143" stroke="#0069FF" stroke-width="2" opacity=".4"></path><path d="M16.185 39c-3.412 0-6.142-7.215-6.142-16.185 0-8.97 2.73-16.185 6.142-16.185" stroke="#0069FF" stroke-width="2" opacity=".4"></path><path d="M32.37 22.815c0 3.412-7.215 6.142-16.185 6.142C7.215 28.957 0 26.227 0 22.816" stroke="#0069FF" stroke-width="2"></path><path d="M16.185 6.63c3.413 0 6.143 7.215 6.143 16.185 0 8.97-2.73 16.185-6.143 16.185" stroke="#0069FF" stroke-width="2"></path><circle stroke="#0069FF" stroke-width="2" cx="16.185" cy="22.815" r="16.185"></circle><g transform="translate(8.775)" stroke="#120078" stroke-width="2"><path d="M14.332 6.923c0 5.167-6.922 10.237-6.922 10.237S.487 11.895.487 6.922C.487 3.12 3.607 0 7.41 0s6.922 3.12 6.922 6.923z" fill="#FFFFFF" fill-rule="nonzero"></path><circle cx="7.41" cy="7.02" r="2.34"></circle></g></g></svg>
