<svg xmlns="http://www.w3.org/2000/svg" width="41" height="41" viewBox="0 0 41 41" aria-hidden="true"><defs><linearGradient id="a" x1="50.055%" x2="50.055%" y1="2.475%" y2="96.438%"><stop offset="0%" stop-color="#0069FF" stop-opacity=".3"></stop><stop offset="100%" stop-color="#0069FF" stop-opacity="0"></stop></linearGradient></defs><g fill="none" fill-rule="evenodd"><path stroke="#0069FF" stroke-width="2" d="M3 11.121v18.108l17.271 10.028L37.45 29.229V11.121L20.271 1.186z" opacity=".2"></path><path fill="url(#a)" fill-rule="nonzero" d="M0 22.936v5.293l17.271 10.028L34.45 28.229v-5.293L17.271 13z" transform="translate(3 1)"></path><path stroke="#0069FF" stroke-width="2" d="M3 23.936v5.293l17.271 10.028L37.45 29.229v-5.293L20.271 14z"></path><path stroke="#0069FF" stroke-width="2" d="M3 23.936l17.271 9.935 17.179-9.935"></path><path fill="#FFF" fill-rule="nonzero" stroke="#120078" stroke-width="2" d="M20.2714 7.7786S12.5643 13.4429 12.5643 19.2c0 4.2714 3.4357 7.7071 7.7071 7.7071 4.2715 0 7.7072-3.4357 7.7072-7.7071 0-5.5714-7.7072-11.4214-7.7072-11.4214z"></path><path stroke="#0069FF" stroke-width="2" d="M3 11.4l17.271 9.936L37.45 11.4" opacity=".2"></path></g></svg>
