<svg xmlns="http://www.w3.org/2000/svg" width="41" height="41" viewBox="0 0 41 41" aria-hidden="true" class="www-Icon www-Icon--xlarge bui-u-mb--regular"><defs><linearGradient x1="50%" y1="1.661%" x2="50%" y2="97.435%" id="a"><stop stop-color="#0069FF" stop-opacity=".424" offset="0%"></stop><stop stop-color="#0069FF" stop-opacity="0" offset="100%"></stop></linearGradient></defs><g fill="none" fill-rule="evenodd"><path d="M17.5 40C7.6 36.5.8 30 .8 20.4V7.9L17.5 1l16.7 6.9v12.5c.1 9.6-7 16.1-16.7 19.6z" fill="url(#a)" fill-rule="nonzero" transform="translate(3)"></path><path d="M20.5 2.2L36 8.6v11.8c.1 10.7-9.4 16.1-15.5 18.5C7.7 34.1 5 26.2 5 20.4V8.6l15.5-6.4zm0-2.2L3 7.3v13.1c0 10 7.1 16.9 17.5 20.6C30.7 37.3 38.1 30.4 38 20.4V7.3L20.5 0z" fill="#0069FF" fill-rule="nonzero"></path><path d="M20.5 32.6c-5.6-2-10.4-5.7-10.4-11.8v-8.7l10.4-4.2 10.4 4.2v8.7c0 6.2-4.9 9.9-10.4 11.8z" stroke="#120078" stroke-width="2" fill="#FFFFFF" fill-rule="nonzero"></path><path stroke="#120078" stroke-width="2" d="M16.1 19.3l3.3 3.4 5.6-5.8"></path></g></svg>
