<svg xmlns="http://www.w3.org/2000/svg" width="41" height="41" viewBox="0 0 41 41" aria-hidden="true" class="www-Icon www-Icon--xlarge bui-u-mb--regular"><defs><linearGradient x1="50.0205%" y1="90.8268%" x2="50.0205%" y2="5.825%" id="a"><stop stop-color="#0069FF" stop-opacity=".6" offset="0%"></stop><stop stop-color="#0069FF" stop-opacity="0" offset="100%"></stop></linearGradient></defs><g fill="none" fill-rule="evenodd"><g fill-rule="nonzero"><path d="M6.3149 26.0723h-2V14.0404C4.3149 7.9286 9.2435 3 15.3553 3h10.2894C31.7565 3 36.685 7.9286 36.685 14.0404v11.2022c0 6.1118-4.9286 11.0404-11.0404 11.0404v-2c5.0073 0 9.0404-4.0332 9.0404-9.0404V14.0404C34.6851 9.0331 30.652 5 25.6447 5H15.3553C10.348 5 6.315 9.0331 6.315 14.0404v12.032z" fill="#0069FF"></path><path d="M3.0745 28.649C1.3605 28.649 0 27.2884 0 25.5744V19.6c0-1.714 1.3605-3.0745 3.0745-3.0745h3.3234V28.649H3.0745zm0-10.1235C2.465 18.5255 2 18.9905 2 19.6v5.9745c0 .6094.465 1.0744 1.0745 1.0744h1.3234v-8.1234H3.0745zM37.9255 16.5255C39.6395 16.5255 41 17.886 41 19.6v5.9745c0 1.714-1.3605 3.0744-3.0745 3.0744h-3.3234V16.5255h3.3234zm0 10.1234c.6094 0 1.0745-.465 1.0745-1.0744V19.6c0-.6094-.465-1.0745-1.0745-1.0745h-1.3234v8.1234h1.3234zM24.732 36.1915c.1944 0 .4106-.2161.4106-.4106v-1.2447c0-.2329-.1707-.4107-.4107-.4107h-7.966c-.2328 0-.4106.1707-.4106.4107v1.2447c0 .2328.1707.4106.4107.4106h7.966zm0 2h-7.966c-1.3632 0-2.4107-1.091-2.4107-2.4106v-1.2447c0-1.3632 1.0911-2.4107 2.4107-2.4107h7.966c1.3631 0 2.4106 1.0911 2.4106 2.4107v1.2447c0 1.299-1.1116 2.4106-2.4107 2.4106z" fill="#120078"></path></g><g transform="translate(10.9574 9.8085)"><circle fill="url(#a)" fill-rule="nonzero" cx="9.5426" cy="9.2936" r="9.1277"></circle><path d="M9.7674 12.704c.5514-.366 1.1026-.7748 1.6132-1.213 1.353-1.1614 2.1407-2.297 2.1407-3.1931 0-.8249-.68-1.4894-1.4894-1.4894-.8248 0-1.4893.68-1.4893 1.4894h-2c0-.8249-.68-1.4894-1.4894-1.4894-.8249 0-1.4894.68-1.4894 1.4894 0 .8961.7878 2.0317 2.1407 3.193.5106.4383 1.0618.8471 1.6132 1.2132.0796.0528.1548.1019.2249.147.07-.0451.1452-.0942.2248-.147z" fill="#FFF"></path><path d="M9.7674 12.704c.5514-.366 1.1026-.7748 1.6132-1.213 1.353-1.1614 2.1407-2.297 2.1407-3.1931 0-.8249-.68-1.4894-1.4894-1.4894-.8248 0-1.4893.68-1.4893 1.4894h-2c0-.8249-.68-1.4894-1.4894-1.4894-.8249 0-1.4894.68-1.4894 1.4894 0 .8961.7878 2.0317 2.1407 3.193.5106.4383 1.0618.8471 1.6132 1.2132.0796.0528.1548.1019.2249.147.07-.0451.1452-.0942.2248-.147zm2.2645-7.8955c1.9038 0 3.4894 1.5495 3.4894 3.4894 0 1.645-1.0793 3.201-2.838 4.7106-.5785.4966-1.1942.9532-1.8097 1.3618-.371.2463-.663.424-.838.5231l-.493.2794-.493-.2794c-.175-.0991-.467-.2768-.838-.523-.6156-.4087-1.2312-.8653-1.8097-1.3619C4.643 11.499 3.5639 9.943 3.5639 8.298c0-1.9038 1.5494-3.4894 3.4893-3.4894.9674 0 1.8526.4001 2.4894 1.0482.6311-.6445 1.5105-1.0482 2.4893-1.0482z" fill="#120078" fill-rule="nonzero"></path></g></g></svg>
